<?xml version="1.0" encoding="UTF-8" standalone="no"?>
<!-- Created with Inkscape (http://www.inkscape.org/) -->

<svg
   xmlns:dc="http://purl.org/dc/elements/1.1/"
   xmlns:cc="http://creativecommons.org/ns#"
   xmlns:rdf="http://www.w3.org/1999/02/22-rdf-syntax-ns#"
   xmlns:svg="http://www.w3.org/2000/svg"
   xmlns="http://www.w3.org/2000/svg"
   xmlns:sodipodi="http://sodipodi.sourceforge.net/DTD/sodipodi-0.dtd"
   xmlns:inkscape="http://www.inkscape.org/namespaces/inkscape"
   sodipodi:docname="ape2.svg"
   xml:space="preserve"
   height="326.31009"
   width="286.79089"
   inkscape:version="0.48.0 r9654"
   version="1.1"
   id="svg2"><sodipodi:namedview
     pagecolor="#ffffff"
     bordercolor="#666666"
     borderopacity="1"
     objecttolerance="10"
     gridtolerance="10"
     guidetolerance="10"
     inkscape:pageopacity="0"
     inkscape:pageshadow="2"
     inkscape:window-width="1440"
     inkscape:window-height="769"
     id="namedview4"
     showgrid="false"
     inkscape:zoom="1.3063923"
     inkscape:cx="13.046597"
     inkscape:cy="163.07222"
     inkscape:window-x="0"
     inkscape:window-y="0"
     inkscape:window-maximized="0"
     inkscape:current-layer="layer4"
     fit-margin-top="0"
     fit-margin-left="0"
     fit-margin-right="0"
     fit-margin-bottom="0" /><metadata
     id="metadata8"><rdf:RDF><cc:Work
         rdf:about=""><dc:format>image/svg+xml</dc:format><dc:type
           rdf:resource="http://purl.org/dc/dcmitype/StillImage" /><dc:title></dc:title></cc:Work></rdf:RDF></metadata><defs
     id="defs6"><clipPath
       id="clipPath20"
       clipPathUnits="userSpaceOnUse"><path
         id="path22"
         d="M 0,0 375,0 375,425 0,425 0,0 z"
         inkscape:connector-curvature="0" /></clipPath></defs><g
     inkscape:groupmode="layer"
     id="layer4"
     inkscape:label="left_arm"
     style="display:inline"
     transform="translate(10.81172,-29.184067)"><g
       id="g4628"
       inkscape:transform-center-x="-48.514021"
       inkscape:transform-center-y="-15.039375"
       transform="matrix(1.7926111,0,0,1.7926111,-134.3599,-130.78289)"><path
         inkscape:connector-curvature="0"
         d="m 333.184,330.322 c -0.707,0.229 -1.477,0.371 -2.305,0.336 -1.793,-0.072 -3.422,-0.927 -4.59,-2.408 -1.437,-1.815 -2.082,-4.318 -2.703,-6.74 -0.242,-0.934 -0.594,-2.274 -0.836,-2.774 -3.066,-2.574 -11.191,-12.502 -11.758,-20.66 -0.051,-0.693 -0.078,-1.414 -0.078,-2.156 0,-7.504 3.063,-17.289 21.75,-24.043 l 0.227,-0.082 0.234,-0.053 c 1.73,-0.4 17.121,-3.639 24.269,5.315 3.247,4.062 8.489,13.933 8.676,19.824 3.582,7.601 7.942,18.471 7.942,26.457 0,4.14 -1.207,7.469 -4.27,9.178 -0.949,0.627 -2.176,1.064 -3.512,1.304 -0.277,2.303 -1.203,4.737 -3.617,6.471 -2.051,1.473 -4.523,1.965 -6.965,1.381 -1.015,-0.242 -1.949,-0.686 -2.828,-1.207 -0.547,0.475 -1.117,0.943 -1.871,1.266 -4.816,2.454 -9.023,-0.167 -17.765,-11.409"
         style="fill:#000000;fill-opacity:1;fill-rule:nonzero;stroke:none"
         id="path24"
         transform="matrix(0.4287877,0,0,-0.4287877,68.534054,271.35362)" /><path
         inkscape:connector-curvature="0"
         d="m 334.023,275.639 c 0,0 14.461,-3.332 20.246,3.914 5.786,7.242 8.383,17.609 7.84,18.297 0,0 13.098,27.414 5.598,31.265 0,0 -3.484,2.5 -5.906,-0.582 0,0 1.957,6.01 -1.524,8.512 -3.48,2.5 -7.386,-0.969 -8.515,-3.147 0,0 0.054,3.116 -2.379,4.151 -1.629,0.693 -3.059,3.17 -15.203,-12.996 0,0 -2.883,3.086 -4.754,0.719 -1.871,-2.372 -2.196,-8.825 -3.883,-9.872 -1.684,-1.05 -10.074,-11.078 -10.563,-18.101 -0.484,-7.028 1.086,-15.668 19.043,-22.16"
         style="fill:#68584c;fill-opacity:1;fill-rule:nonzero;stroke:none"
         id="path26"
         transform="matrix(0.4287877,0,0,-0.4287877,68.534054,271.35362)" /><path
         inkscape:connector-curvature="0"
         d="m 347.434,332.449 c 0.753,-0.322 1.324,-0.791 1.871,-1.265 0.879,0.521 1.812,0.964 2.828,1.207 2.441,0.584 4.914,0.091 6.965,-1.381 2.414,-1.735 1.187,-3.688 1.468,-5.991 1.336,-0.24 4.711,-1.158 5.657,-1.785 1.605,-0.892 2.687,-2.24 3.367,-3.904 0.82,4.615 0.609,8.504 -1.883,9.785 0,0 -3.484,2.5 -5.906,-0.582 0,0 1.957,6.01 -1.524,8.512 -3.48,2.5 -7.386,-0.969 -8.515,-3.147 0,0 0.054,3.116 -2.379,4.151 -1.387,0.59 -2.653,2.428 -10.477,-6.985 3.262,2.498 5.805,2.772 8.528,1.385"
         style="fill:#847162;fill-opacity:1;fill-rule:nonzero;stroke:none"
         id="path28"
         transform="matrix(0.4287877,0,0,-0.4287877,68.534054,271.35362)" /><path
         inkscape:connector-curvature="0"
         d="m 332.684,326.363 c 0.066,-0.08 6.421,-8.013 2.918,-15.056 -3.504,-7.036 -6.102,-8.022 -6.129,-8.032 0,0 2.398,-1.3 4.679,1.743 0.969,1.292 2.067,3.042 3.242,5.398 4.083,8.207 -2.859,16.852 -3.16,17.213 l -1.55,-1.266"
         style="fill:#000000;fill-opacity:1;fill-rule:nonzero;stroke:none"
         id="path30"
         transform="matrix(0.4287877,0,0,-0.4287877,68.534054,271.35362)" /><path
         inkscape:connector-curvature="0"
         d="m 337.227,311.797 c 9.128,-3.547 21.191,-11.654 21.312,-11.737 0,0 -0.203,2.547 -2.023,3.7 -4.246,2.687 -12.024,7.361 -18.563,9.902 l -0.726,-1.865"
         style="fill:#000000;fill-opacity:1;fill-rule:nonzero;stroke:none"
         id="path32"
         transform="matrix(0.4287877,0,0,-0.4287877,68.534054,271.35362)" /><path
         inkscape:connector-curvature="0"
         d="m 350.523,306.428 1.817,-0.84 12.258,26.582 -1.817,0.836 -12.258,-26.578"
         style="fill:#000000;fill-opacity:1;fill-rule:nonzero;stroke:none"
         id="path34"
         transform="matrix(0.4287877,0,0,-0.4287877,68.534054,271.35362)" /><path
         inkscape:connector-curvature="0"
         d="m 339.644,312.31 1.805,-0.863 12.602,26.418 -1.805,0.863 -12.602,-26.418"
         style="fill:#000000;fill-opacity:1;fill-rule:nonzero;stroke:none"
         id="path36"
         transform="matrix(0.4287877,0,0,-0.4287877,68.534054,271.35362)" /><path
         inkscape:connector-curvature="0"
         d="m 312.078,289.4 c -3.434,-0.773 -6.371,-3.177 -8.719,-7.144 -4.355,-7.346 -9.191,-16.006 -11.816,-20.754 -1.484,0.568 -3.191,0.926 -5.027,0.517 -2.864,-0.636 -5.098,-3.541 -6.68,-6.334 -11.074,3.758 -34.883,11.043 -42.652,7.114 -2.2,-1.114 -3.094,-2.778 -3.454,-3.977 l -7.464,-23.051 c -0.559,-1.419 -5.883,-15.734 -0.977,-25.671 1.957,-3.957 5.336,-6.731 9.781,-8.018 0.614,-0.178 62.379,-16.875 73.742,-5.516 7.688,7.686 38.368,59.412 41.84,65.287 l -0.367,-0.525 c 1.235,1.482 2.434,4.283 1.738,7.291 -0.722,3.129 -3.16,5.649 -7.253,7.488 0.093,-0.043 -24.172,11.7 -25.118,12.157 -1,0.582 -3.875,1.97 -7.574,1.136"
         style="fill:#000000;fill-opacity:1;fill-rule:nonzero;stroke:none"
         id="path38"
         transform="matrix(0.4287877,0,0,-0.4287877,68.534054,271.35362)" /><path
         inkscape:connector-curvature="0"
         d="m 230.059,234.498 c 0,0 -9.387,-24.082 6.125,-28.574 15.507,-4.489 62.246,-14.08 69.8,-6.53 7.551,7.551 41.227,64.495 41.227,64.495 0,0 4.082,4.898 -4.082,8.572 l -25.309,12.246 c 0,0 -5.976,4.023 -11.019,-4.49 -6.332,-10.68 -13.715,-24.203 -13.715,-24.203 0,0 -3.004,2.703 -5.703,2.101 -2.699,-0.601 -5.551,-7.353 -5.551,-7.353 0,0 -41.871,14.857 -44.273,6.904 -2.403,-7.955 -7.5,-23.168 -7.5,-23.168"
         style="fill:#d6e3e8;fill-opacity:1;fill-rule:nonzero;stroke:none"
         id="path40"
         transform="matrix(0.4287877,0,0,-0.4287877,68.534054,271.35362)" /><path
         inkscape:connector-curvature="0"
         d="m 229.34,222.961 7.465,23.051 c 0.359,1.201 1.254,2.865 3.453,3.976 7.769,3.93 31.578,-3.353 42.652,-7.111 1.582,2.793 3.817,5.695 6.68,6.332 1.836,0.41 3.543,0.051 5.027,-0.516 1.91,3.453 14.246,24.83 22.149,36.524 -1.938,0.726 -6.207,1.343 -9.965,-5 -6.332,-10.68 -13.715,-24.203 -13.715,-24.203 0,0 -3.004,2.703 -5.703,2.101 -2.699,-0.601 -5.551,-7.353 -5.551,-7.353 0,0 -41.871,14.857 -44.273,6.904 -2.403,-7.955 -7.5,-23.168 -7.5,-23.168 0,0 -3.731,-9.584 -2.594,-17.789 0.765,3.312 1.664,5.713 1.875,6.252"
         style="fill:#ffffff;fill-opacity:1;fill-rule:nonzero;stroke:none"
         id="path42"
         transform="matrix(0.4287877,0,0,-0.4287877,68.534054,271.35362)" /><path
         inkscape:connector-curvature="0"
         d="m 281.832,250.762 -1.684,-2.959 c 0,0 -1.964,4.498 -0.632,5.828 1.328,1.33 2.316,-2.869 2.316,-2.869"
         style="fill:#000000;fill-opacity:1;fill-rule:nonzero;stroke:none"
         id="path104"
         transform="matrix(0.4287877,0,0,-0.4287877,68.534054,271.35362)" /><path
         inkscape:connector-curvature="0"
         d="M 293.086,256.014 298,251.723 c 0,0 1.531,3.953 -5.18,8.502 l 0.266,-4.211"
         style="fill:#000000;fill-opacity:1;fill-rule:nonzero;stroke:none"
         id="path106"
         transform="matrix(0.4287877,0,0,-0.4287877,68.534054,271.35362)" /></g></g><g
     transform="matrix(1.25,0,0,-1.25,-0.27049214,454.82717)"
     inkscape:label="ape_body"
     inkscape:groupmode="layer"
     id="g12"
     style="display:none">





<g
   id="g14" /><g
   transform="matrix(0.6149197,0,0,0.6149197,-0.33821733,102.69006)"
   id="g16"><g
     clip-path="url(#clipPath20)"
     id="g18"><path
       id="path44"
       style="fill:#000000;fill-opacity:1;fill-rule:nonzero;stroke:none"
       d="m 83.007,149.193 c 0,0 -16.172,105.117 16.621,119.492 25.578,11.211 137.013,15.723 147.345,-12.128 10.332,-27.852 -4.942,-105.567 -8.536,-109.61 -3.593,-4.043 -138.36,-20.664 -155.43,2.246"
       inkscape:connector-curvature="0" /><path
       id="path46"
       style="fill:#ffffff;fill-opacity:1;fill-rule:nonzero;stroke:none"
       d="m 101.233,265.021 0,0 c -14.23,-6.238 -18.23,-34.339 -18.23,-62.414 0,-19.759 1.98,-39.433 3.775,-51.527 15.912,-18.018 134.706,-6.258 148.726,-1.096 2.719,6.631 11.051,47.862 11.051,79.01 0,10.426 -0.938,19.711 -3.332,26.17 -1.329,3.578 -5.438,6.916 -11.891,9.652 -32.348,13.725 -110.585,8.76 -130.099,0.205"
       inkscape:connector-curvature="0" /><path
       id="path48"
       style="fill:#d6e3e8;fill-opacity:1;fill-rule:nonzero;stroke:none"
       d="m 137.007,164.225 c -38.942,5.125 -34.844,66.611 -34.844,66.611 L 83.257,214.307 c -0.174,-3.86 -0.254,-7.78 -0.254,-11.7 0,-19.759 1.98,-39.433 3.775,-51.527 15.912,-18.018 134.706,-6.258 148.726,-1.096 1.39,3.395 4.254,15.869 6.715,31.407 -16.821,-28.625 -71.654,-21.581 -105.212,-17.166"
       inkscape:connector-curvature="0" /><path
       id="path50"
       style="fill:#000000;fill-opacity:1;fill-rule:nonzero;stroke:none"
       d="m 122.095,268.826 0,0 c -4.354,-0.699 -7.651,-3.902 -8.815,-8.57 -1.633,-6.528 1.145,-14.27 6.602,-18.408 21.355,-16.196 53.262,-36.582 64,-39.627 12.184,-3.453 36.403,23.302 46.251,34.966 5.687,6.12 8.461,13.373 7.285,19.264 -0.594,2.996 -2.207,5.295 -4.422,6.309 -2.996,1.369 -6.449,2.613 -10.262,3.699 -27.308,7.779 -71.299,7.078 -100.639,2.367"
       inkscape:connector-curvature="0" /><path
       id="path52"
       style="fill:#40312b;fill-opacity:1;fill-rule:nonzero;stroke:none"
       d="m 122.3,245.033 c 2.61,-1.98 5.339,-3.992 8.133,-6.008 0.134,1.864 0.804,3.555 2.071,5.028 7.032,8.183 29.716,7.295 34.418,7.017 0.333,1.418 2.977,12.658 3.171,13.481 -0.664,0.853 -2.653,3.414 -2.653,3.427 -0.001,0.002 -0.138,0.133 -0.34,0.327 -16.04,-0.123 -31.831,-1.414 -44.371,-3.428 -7.757,-1.246 -7.857,-14.209 -0.429,-19.844"
       inkscape:connector-curvature="0" /><path
       id="path54"
       style="fill:#847162;fill-opacity:1;fill-rule:nonzero;stroke:none"
       d="m 231.332,259.121 c -2.891,1.32 -6.145,2.481 -9.691,3.49 -14.229,4.053 -33.143,5.692 -51.938,5.698 l 2.556,-3.286 -3.781,-16.068 -0.853,0.067 c -0.265,0.019 -26.569,1.913 -33.605,-6.272 -1.269,-1.477 -1.756,-3.191 -1.563,-5.176 20.6,-14.701 44.208,-29.148 52.517,-31.504 7.71,-2.185 26.772,15.539 42.1,33.698 8.797,9.472 7.242,17.988 4.258,19.353"
       inkscape:connector-curvature="0" /><path
       id="path56"
       style="fill:#000000;fill-opacity:1;fill-rule:nonzero;stroke:none"
       d="M 31.515,42.955 30.579,42.836 29.804,42.283 C 21.319,36.236 1.522,21.189 0.938,12.088 0.714,8.584 1.534,5.775 3.374,3.74 6.612,0.164 11.726,0.187 16.675,0.211 l 1.183,0.004 69.049,0 c 0,0 -0.049,0.053 -0.053,0.053 0.204,-0.02 0.37,-0.067 0.594,-0.067 1.647,0 5.899,0.276 9.813,2.834 3.476,2.274 7.621,6.963 7.621,16.393 0,7.882 -3.035,19.148 -17.496,28.047 l -0.442,0.275 c -1.41,0.977 -2.75,1.904 -55.429,-4.795"
       inkscape:connector-curvature="0" /><path
       id="path58"
       style="fill:#40312b;fill-opacity:1;fill-rule:nonzero;stroke:none"
       d="m 31.981,38.984 c 0,0 -26.677,-19.013 -27.201,-27.162 -0.523,-8.15 6.278,-7.607 13.078,-7.607 6.801,0 69.049,0 69.049,0 0,0 14.123,-1.086 14.123,15.213 0,16.297 -14.644,23.902 -16.215,24.988 -1.57,1.088 -52.834,-5.432 -52.834,-5.432"
       inkscape:connector-curvature="0" /><path
       id="path60"
       style="fill:#382a25;fill-opacity:1;fill-rule:nonzero;stroke:none"
       d="m 84.815,44.416 c -1.57,1.088 -52.834,-5.432 -52.834,-5.432 0,0 -9.031,-6.439 -16.687,-13.429 l 84.209,2.552 C 95.718,38.473 86.073,43.545 84.815,44.416"
       inkscape:connector-curvature="0" /><path
       id="path62"
       style="fill:#000000;fill-opacity:1;fill-rule:nonzero;stroke:none"
       d="m 246.387,47.744 0.007,0.006 -0.46,-0.275 C 230.918,38.576 227.766,27.31 227.766,19.428 c 0,-9.43 4.304,-14.119 7.914,-16.393 4.062,-2.558 8.48,-2.834 10.191,-2.834 0.231,0 0.406,0.047 0.613,0.067 l -0.05,-0.053 71.711,0 1.23,-0.004 c 5.137,-0.024 10.449,-0.047 13.812,3.529 1.911,2.035 2.762,4.844 2.532,8.348 -0.61,9.101 -21.168,24.148 -29.981,30.195 l -0.804,0.553 -0.973,0.119 c -54.711,6.699 -56.102,5.772 -57.574,4.789"
       inkscape:connector-curvature="0" /><path
       id="path64"
       style="fill:#40312b;fill-opacity:1;fill-rule:nonzero;stroke:none"
       d="m 303.477,38.984 c 0,0 27.707,-19.013 28.25,-27.162 0.542,-8.15 -6.52,-7.607 -13.582,-7.607 -7.063,0 -71.711,0 -71.711,0 0,0 -14.668,-1.086 -14.668,15.213 0,16.297 15.211,23.902 16.839,24.988 1.629,1.088 54.872,-5.432 54.872,-5.432"
       inkscape:connector-curvature="0" /><path
       id="path66"
       style="fill:#382a25;fill-opacity:1;fill-rule:nonzero;stroke:none"
       d="m 318.344,27.668 c -7.301,6.123 -14.867,11.316 -14.867,11.316 0,0 -53.243,6.52 -54.872,5.432 -1.453,-0.969 -13.691,-7.148 -16.316,-20.039 l 86.055,3.291"
       inkscape:connector-curvature="0" /><path
       id="path68"
       style="fill:#000000;fill-opacity:1;fill-rule:nonzero;stroke:none"
       d="M 73.901,136.451 72.972,135.9 C 72.634,135.701 38.89,115.758 18.101,103.08 -4.888,89.064 9.987,39.955 11.759,34.4 l 0.916,-2.873 93.541,2.834 -2.455,5.459 c -3.946,8.768 -7.867,19.694 -7.934,23.188 3,3.025 21.43,9.896 37.621,14.707 1.242,-0.037 48.764,-1.393 51.615,-1.475 5.081,-4.867 27.421,-26.855 34.324,-43.68 l 1.062,-2.585 103.012,3.941 -3.098,5.668 c -1.867,3.422 -46.183,83.924 -80.953,97.621 l -0.719,0.281 -164.79,-1.035"
       inkscape:connector-curvature="0" /><path
       id="path70"
       style="fill:#d6e3e8;fill-opacity:1;fill-rule:nonzero;stroke:none"
       d="m 237.945,133.482 c 33.817,-13.322 78.91,-95.816 78.91,-95.816 L 223.086,34.08 c -8.195,19.981 -36.379,46.113 -36.379,46.113 l -53.802,1.539 c 0,0 -39.965,-11.785 -40.99,-17.422 -1.025,-5.636 8.197,-26.132 8.197,-26.132 L 15.569,35.615 c 0,0 -16.394,51.24 4.614,64.051 21.007,12.809 54.824,32.793 54.824,32.793 l 162.938,1.023"
       inkscape:connector-curvature="0" /><path
       id="path72"
       style="fill:#ffffff;fill-opacity:1;fill-rule:nonzero;stroke:none"
       d="m 277.863,97.193 c -12.902,16.5 -27.207,31.282 -39.918,36.289 L 75.007,132.459 c 0,0 -33.817,-19.984 -54.824,-32.793 -0.909,-0.555 -1.723,-1.203 -2.495,-1.893 5.006,-5.088 20.061,-16.314 52.225,-11.338 41.035,6.352 62.043,12.213 100.147,8.793 32.319,-2.9 106.792,-22.308 107.803,1.965"
       inkscape:connector-curvature="0" /><path
       id="path74"
       style="fill:#000000;fill-opacity:1;fill-rule:nonzero;stroke:none"
       d="m 113.489,80.182 90.585,-3.215 c 0,0 -38.903,10.635 -90.585,3.215"
       inkscape:connector-curvature="0" /><path
       id="path76"
       style="fill:#000000;fill-opacity:1;fill-rule:nonzero;stroke:none"
       d="m 183.634,203.709 c 0.043,-0.34 4.21,-34.371 -0.002,-68.586 l 3.973,-0.488 c 4.27,34.722 0.039,69.226 -0.003,69.57 l -3.968,-0.496"
       inkscape:connector-curvature="0" /><path
       id="path78"
       style="fill:#000000;fill-opacity:1;fill-rule:nonzero;stroke:none"
       d="m 241.594,260.26 c 4.879,-13.977 -3.856,-26.686 -3.946,-26.813 -10.878,-19.515 -38.066,-33.504 -38.339,-33.64 l -0.582,-0.297 0.035,-0.651 c 0.011,-0.236 1.3,-23.759 1.3,-28.42 -0.007,-0.25 -0.625,-27.283 -1.308,-32.517 l 1.984,-0.26 c 0.696,5.34 1.297,31.637 1.324,32.754 l 0,0.002 c 0,4.373 -1.062,24.1 -1.269,27.908 4.105,2.164 28.168,15.43 38.547,34.059 0.258,0.359 5.765,8.343 5.765,18.904 0,3.037 -0.457,6.287 -1.621,9.629 l -1.89,-0.658"
       inkscape:connector-curvature="0" /><path
       id="path80"
       style="fill:#000000;fill-opacity:1;fill-rule:nonzero;stroke:none"
       d="m 106.173,255.275 c 0,-3.386 0.652,-17.773 11.369,-25.273 10.971,-7.682 51.223,-32.106 55.434,-34.656 0.185,-2.366 1.152,-15.25 1.152,-29.487 0,-11.006 -0.584,-22.744 -2.565,-30.853 l 1.944,-0.475 c 4.867,19.932 1.562,59.799 1.42,61.488 l -0.043,0.506 -0.436,0.266 c -0.441,0.266 -44.293,26.82 -55.762,34.848 -11.031,7.724 -10.511,24.093 -10.503,24.257 l -1.998,0.082 c -0.002,-0.074 -0.012,-0.316 -0.012,-0.703"
       inkscape:connector-curvature="0" /><path
       id="path108"
       style="fill:#000000;fill-opacity:1;fill-rule:nonzero;stroke:none"
       d="m 80.304,166.643 c -4.461,-0.514 -8.078,-2.526 -10.465,-5.817 -2.709,-3.738 -3.352,-8.383 -3.352,-11.945 0,-1.852 0.172,-3.356 0.321,-4.344 -0.53,-1.773 -1.461,-5.566 -1.461,-10.418 0,-0.851 0.031,-1.734 0.093,-2.644 0.309,-4.282 4.358,-8.926 31.686,-13.872 16.682,-3.017 37.85,-5.279 56.623,-6.05 37.837,-1.555 89.501,9.894 97.044,13.129 5.594,2.396 6.914,8.441 6.914,13.625 0,3.566 -0.605,6.609 -0.894,7.886 0.003,0.311 0.011,0.621 0.011,0.926 0,7.643 -1.808,13.221 -5.383,16.594 -3.636,3.426 -7.687,3.181 -8.136,3.142 l -2.614,-0.228 c 0,0 -2.113,-6.32 -2.839,-8.492 -8.372,-2.7 -40.715,-10.918 -81.888,-10.918 -36.68,0 -63.137,7.715 -70.908,10.273 -0.133,2.395 -0.536,9.641 -0.536,9.641 l -4.216,-0.488"
       inkscape:connector-curvature="0" /><path
       id="path110"
       style="fill:#a41217;fill-opacity:1;fill-rule:nonzero;stroke:none"
       d="m 80.761,162.67 0.449,-8.086 c 0,0 29.664,-11.367 74.754,-11.367 45.091,0 79.934,9.736 85.055,11.785 l 2.633,7.867 c 0,0 9.664,0.844 9.153,-17.09 0,0 3.589,-14.347 -3.586,-17.422 -7.172,-3.074 -57.899,-14.345 -95.306,-12.808 -37.402,1.537 -83.969,9.037 -84.48,16.211 -0.514,7.174 1.474,12.482 1.474,12.482 0,0 -3.467,16.891 9.854,18.428"
       inkscape:connector-curvature="0" /><path
       id="path112"
       style="fill:#d71920;fill-opacity:1;fill-rule:nonzero;stroke:none"
       d="m 243.652,162.869 -2.633,-7.867 c -5.121,-2.049 -39.964,-11.785 -85.055,-11.785 -45.09,0 -74.754,11.367 -74.754,11.367 l -0.449,8.086 c -3.973,-0.459 -6.43,-2.295 -7.953,-4.629 0.763,-5.484 8.82,-8.098 8.82,-8.098 40.683,-17.095 126.169,-6.707 126.169,-6.707 0,0 31.594,4.762 36.789,9.09 3.668,3.055 3.879,6.858 3.687,8.834 -2.3,1.899 -4.621,1.709 -4.621,1.709"
       inkscape:connector-curvature="0" /><path
       id="path114"
       style="fill:#000000;fill-opacity:1;fill-rule:nonzero;stroke:none"
       d="m 167.644,120.955 c -1.944,-0.752 -3.309,-2.437 -3.747,-4.621 l 0.008,0.037 C 163.085,113.129 150.737,91.26 139.276,71.99 l -2.65,-4.453 39.783,-11.461 6.395,59.279 -1.852,1.364 c -3.117,2.299 -8.994,5.904 -13.308,4.236"
       inkscape:connector-curvature="0" /><path
       id="path116"
       style="fill:#a41217;fill-opacity:1;fill-rule:nonzero;stroke:none"
       d="m 178.581,113.498 -5.637,-52.262 -30.23,8.711 c 0,0 24.08,40.477 25.105,45.602 1.026,5.125 10.762,-2.051 10.762,-2.051"
       inkscape:connector-curvature="0" /><path
       id="path118"
       style="fill:#000000;fill-opacity:1;fill-rule:nonzero;stroke:none"
       d="m 173.767,115.475 c -0.233,-0.832 -0.702,-3.688 3.025,-5.555 l -0.082,0.047 c 3.439,-2.252 15.349,-23.703 24.407,-42.285 l 2.141,-4.391 26.195,19.992 -1.84,3.067 c -6.344,10.57 -26.429,30.207 -27.281,31.039 l -1.031,1.006 -1.438,0.115 c -22.729,1.855 -23.305,-0.197 -24.096,-3.035"
       inkscape:connector-curvature="0" /><path
       id="path120"
       style="fill:#a41217;fill-opacity:1;fill-rule:nonzero;stroke:none"
       d="m 197.539,114.525 c 0,0 20.496,-19.984 26.645,-30.232 L 204.711,69.436 c 0,0 -19.982,40.988 -26.13,44.062 -6.15,3.074 18.958,1.027 18.958,1.027"
       inkscape:connector-curvature="0" /><path
       id="path122"
       style="fill:#000000;fill-opacity:1;fill-rule:nonzero;stroke:none"
       d="m 161.296,147.303 -0.51,-3.719 c 0,0 3.625,-0.734 3.658,-0.742 0.27,-7.969 0.547,-18.315 0.547,-24.282 0,-0.689 -0.012,-1.21 -0.019,-1.773 -0.846,-0.23 -4.739,-1.283 -4.739,-1.283 l 0,-3.061 c 0,-0.41 0.188,-10.058 16.616,-10.859 16.12,-0.783 25.94,1.053 30.905,5.781 2.301,2.194 3.519,5.03 3.519,8.2 l 0.032,3.367 c 0.179,13.183 -0.141,26.552 -6.012,32.507 -1.973,2.002 -4.477,3.061 -7.238,3.063 l -26.65,0 c -4.541,0 -9.429,-2.227 -10.109,-7.199"
       inkscape:connector-curvature="0" /><path
       id="path124"
       style="fill:#d71920;fill-opacity:1;fill-rule:nonzero;stroke:none"
       d="m 164.233,112.443 c 0,0 0,-6.238 12.809,-6.863 12.81,-0.623 30.231,0 30.231,9.985 0,9.98 1.539,34.937 -9.222,34.937 -10.762,0 -26.646,0 -26.646,0 0,0 -5.634,0 -6.148,-3.742 l 3.074,-0.625 c 0,0 1.027,-28.078 0.514,-32.445 l -4.612,-1.247"
       inkscape:connector-curvature="0" /><path
       id="path126"
       style="fill:#a41217;fill-opacity:1;fill-rule:nonzero;stroke:none"
       d="m 207.273,115.565 c 0,1.89 0.055,4.32 0.071,7.013 -2.582,-5.154 -9.153,-7.893 -21.189,-7.26 -11.681,0.617 -15.816,6.674 -17.24,10.141 0.1,-5.402 0.117,-10.172 -0.07,-11.769 l -4.612,-1.247 c 0,0 0,-6.238 12.809,-6.863 12.81,-0.623 30.231,0 30.231,9.985"
       inkscape:connector-curvature="0" /><path
       id="path128"
       style="fill:#000000;fill-opacity:1;fill-rule:nonzero;stroke:none"
       d="m 69.587,143.397 c 8.103,-8.415 35.215,-6.856 35.215,-6.856 -33.033,3.117 -35.528,12.777 -35.528,12.777 l 0.313,-5.921"
       inkscape:connector-curvature="0" /><path
       id="path130"
       style="fill:#000000;fill-opacity:1;fill-rule:nonzero;stroke:none"
       d="m 254.391,149.318 c 0,0 -2.493,-5.609 -17.454,-7.168 0,0 9.661,-1.871 18.079,2.493 l -0.625,4.675"
       inkscape:connector-curvature="0" /><path
       id="path132"
       style="fill:#000000;fill-opacity:1;fill-rule:nonzero;stroke:none"
       d="m 202.77,385.49 c 0,0 -5.969,6.348 -2.797,8.948 3.175,2.602 19.925,3.666 23.054,-8.836 3.129,-12.498 -8.707,-11.311 -20.257,-0.112"
       inkscape:connector-curvature="0" /><path
       sodipodi:nodetypes="cssccc"
       id="path134"
       style="fill:#68584c;fill-opacity:1;fill-rule:nonzero;stroke:none"
       d="m 213.812,393.053 c -0.05,0.019 -0.093,0.041 -0.144,0.058 -5.305,1.799 -11.262,0.745 -12.465,-0.199 -0.121,-0.097 -0.16,-0.164 -0.168,-0.32 0.5199,-2.74125 4.37057,-6.06144 2.72986,-3.60463 L 213.812,393.053"
       inkscape:connector-curvature="0" /><path
       sodipodi:nodetypes="cccsc"
       id="path136"
       style="fill:#cceffc;fill-opacity:1;fill-rule:nonzero;stroke:none"
       d="m 221.039,385.65 c -0.766,2.956 -2.582,5.16 -5.383,6.604 l -10.7632,-4.50156 c 3.656,-1.898 14.0132,-8.63344 15.4822,-7.75844 1.602,0.957 1.102,3.953 0.664,5.656"
       inkscape:connector-curvature="0" /><path
       id="path138"
       style="fill:#000000;fill-opacity:1;fill-rule:nonzero;stroke:none"
       d="m 217.87548,387.18336 c 0.12883,-1.36802 -0.87724,-2.58144 -2.24771,-2.71027 -1.36557,-0.13005 -2.57899,0.87602 -2.70782,2.24281 -0.12514,1.37047 0.87725,2.58513 2.24772,2.71273 1.36556,0.12882 2.57899,-0.87725 2.70781,-2.24527"
       inkscape:connector-curvature="0" /><path
       id="path140"
       style="fill:#000000;fill-opacity:1;fill-rule:nonzero;stroke:none"
       d="m 176.649,424.418 c -11.666,-4.866 -17.894,-20.826 -19.146,-27.919 -6.078,-7.559 -15.633,-27.093 -18.777,-52.751 -5.213,-12.855 -19.84,-74.998 -21.014,-79.566 -0.072,-0.274 -0.111,-0.555 -0.123,-0.836 l -0.047,-1.155 c -0.012,-0.277 0.008,-0.554 0.055,-0.828 0.207,-1.222 0.746,-2.437 1.603,-3.607 7.268,-9.975 35.451,-20.758 71.066,-23.453 44.796,-3.395 56.627,18.088 58.427,26.097 l 0,0.008 c 12.707,2.981 21.528,8.805 26.215,17.32 4.535,8.239 4.762,17.883 3.106,27.631 -1.543,9.1 -4.731,18.291 -7.579,26.508 l -2.859,8.494 c -0.027,0.082 -2.226,7.348 -2.226,7.348 -2.211,7.758 -4.122,14.457 -10.614,19.391 -6.566,4.99 -13.886,8.337 -21.638,11.882 l -8.95,4.203 c -0.269,0.133 -23.98,11.689 -34.207,14.669 -1.543,10.077 -0.925,14.051 -0.375,15.496 0.266,0.685 0.325,1.409 0.207,2.094 -0.168,0.999 -0.714,1.924 -1.574,2.555 -1.449,1.066 -3.43,1.031 -4.843,-0.081 -0.259,-0.203 -0.537,-0.606 -0.804,-0.885 -0.19,2.029 -0.379,4.066 -0.379,4.066 -0.012,0.098 -0.026,0.199 -0.041,0.295 -0.196,1.146 -0.877,2.155 -1.883,2.758 -1.09,0.656 -2.426,0.754 -3.6,0.266"
       inkscape:connector-curvature="0" /><path
       id="path142"
       style="fill:#847162;fill-opacity:1;fill-rule:nonzero;stroke:none"
       d="m 263.76,339.166 c -3.668,10.871 -4.282,19.305 -11.445,24.748 -8.633,6.565 -18.971,10.271 -29.932,15.684 -5.934,2.927 -27.442,12.947 -34.332,14.68 -5.538,-1.651 -24.683,-9.079 -22.534,-32.507 2.449,-26.699 16.183,-28.144 16.318,-28.154 l 3.08,-0.256 -2.639,-1.597 c -0.25,-0.153 -25.248,-15.528 -23.91,-35.754 l 0.276,-5.278 c 0.642,-13.882 1.609,-34.861 15.548,-45.798 4.178,-3.276 8.94,-5.745 15.396,-6.586 0.488,-0.104 0.766,-0.096 1.062,-0.133 38.938,-4.862 52.659,16.443 54.139,23.062 l 0.547,2.451 2.441,0.573 c 43.657,10.244 23.348,51.392 15.985,74.865"
       inkscape:connector-curvature="0" /><path
       id="path144"
       style="fill:#68584c;fill-opacity:1;fill-rule:nonzero;stroke:none"
       d="m 203.57971,263.69956 c 0,0 28.37342,-9.47342 40.60001,-0.75027 2.35508,-7.99763 -17.11558,-13.35136 -27.14205,-7.99579"
       inkscape:connector-curvature="0"
       sodipodi:nodetypes="ccs" /><path
       id="path146"
       style="fill:#b49c87;fill-opacity:1;fill-rule:nonzero;stroke:none"
       d="m 263.76,339.166 c -3.668,10.871 -4.282,19.305 -11.445,24.748 -8.633,6.565 -18.971,10.271 -29.932,15.684 -5.934,2.927 -27.442,12.947 -34.332,14.68 -1.642,-0.489 -4.484,-1.505 -7.607,-3.276 10.501,-3.85 33.708,-14.396 38.865,-16.942 10.96,-5.412 21.298,-9.12 29.935,-15.683 7.164,-5.445 7.778,-13.879 11.446,-24.75 4.968,-15.848 15.816,-39.742 8.917,-56.754 12.547,16.984 -0.308,44.637 -5.847,62.293"
       inkscape:connector-curvature="0" /><path
       id="path148"
       style="fill:#40312b;fill-opacity:1;fill-rule:nonzero;stroke:none"
       d="m 132.504,244.053 c 6.212,7.228 24.658,7.377 32.119,7.121 -0.081,0.135 -0.169,0.279 -0.235,0.386 -3.307,6.2 -4.899,13.446 -6.041,20.165 -1.143,6.728 -1.448,13.375 -1.703,18.916 l -0.274,5.236 c -1.207,18.258 16.844,32.168 22.914,36.316 -4.062,1.432 -12.088,6.434 -15.031,23.766 -0.297,1.75 -0.543,3.623 -0.727,5.631 -2.113,23.021 15.602,31.646 22.688,34.155 -0.588,3.518 -2.274,14.072 -0.383,19.031 -2.193,-1.732 -6.133,-9.964 -6.133,-9.964 l -0.711,7.383 c 0,0 -0.447,4.778 -0.799,8.53 -12.447,-5.191 -17.166,-25.89 -17.095,-26.09 -5.559,-6.496 -15.469,-26.32 -18.49,-51.989 -10.854,-26.855 -18.803,-70.845 -21.018,-79.461 0,0 -2.246,-9.716 -1.758,-10.382 2.002,-2.746 4.941,-6.547 11.719,-10.112 0.275,0.469 0.585,0.928 0.958,1.362"
       inkscape:connector-curvature="0" /><path
       id="path150"
       style="fill:#847162;fill-opacity:1;fill-rule:nonzero;stroke:none"
       d="m 165.945,249.113 c -5.93,0.268 -25.926,0.615 -31.925,-6.363 -0.264,-0.307 -0.454,-0.639 -0.654,-0.965 4.99,-2.351 11.805,-4.549 21.35,-6.201 10.658,-1.688 24.062,-2.625 35.077,-1.258 -13.861,2.264 -20.792,10.315 -23.848,14.787"
       inkscape:connector-curvature="0" /><path
       id="path152"
       style="fill:#000000;fill-opacity:1;fill-rule:nonzero;stroke:none"
       d="m 249.85248,261.92272 -4.07438,2.08126 c -3.695,-1.773 -40.63862,-14.60226 -52.77562,14.99874 l -1.464,-0.599 c 12.707,-30.983 55.85266,-17.52759 56.30566,-17.37359"
       inkscape:connector-curvature="0"
       sodipodi:nodetypes="ccccc" /><path
       id="path154"
       style="fill:#000000;fill-opacity:1;fill-rule:nonzero;stroke:none"
       d="m 188.17345,273.05423 c 0,0 3.25,6.77937 9.297,8.40037 0,0 -8.00781,2.18889 -9.297,-7.95407"
       inkscape:connector-curvature="0"
       sodipodi:nodetypes="ccc" /><path
       id="path156"
       style="fill:#000000;fill-opacity:1;fill-rule:nonzero;stroke:none"
       d="m 131.095,342.168 c -4.989,-3.506 -10.108,-16.531 -8.317,-24.551 0.914,-4.076 3.574,-6.789 7.303,-7.439 9.717,-1.696 25.771,4.73 27.707,11.09 0.906,2.98 2.797,9.183 -4.539,14.753 -3.385,2.659 -15.137,11.079 -22.154,6.147"
       inkscape:connector-curvature="0" /><path
       id="path158"
       style="fill:#847162;fill-opacity:1;fill-rule:nonzero;stroke:none"
       d="m 154.981,332.846 c 0,0 -14.013,9.377 -20.062,5.617 -6.049,-3.762 -13.817,-23.672 -3.723,-24.965 10.094,-1.293 25.823,5.479 27.139,8.982 1.316,3.506 2.012,6.905 -3.354,10.366"
       inkscape:connector-curvature="0" /><path
       id="path160"
       style="fill:#000000;fill-opacity:1;fill-rule:nonzero;stroke:none"
       d="m 144.561,331.799 c -2.277,0.879 -5.283,1.697 -7.888,1.269 -2.586,-0.523 -3,-2.937 -3,-2.937 1.242,0.715 2.347,0.809 3.519,0.969 -1.185,-1.432 -2.517,-3.649 -2.558,-6.432 0.039,-2.293 2.535,-2.896 2.535,-2.896 -1.852,4.843 1.594,8.302 2.711,9.261 2.795,-0.433 5.754,-1.779 7.226,-2.621 0,0 0.057,2.17 -2.545,3.387"
       inkscape:connector-curvature="0" /><path
       id="path162"
       style="fill:#000000;fill-opacity:1;fill-rule:nonzero;stroke:none"
       d="m 248.568,311.603 c 4.2,-15.306 2.438,-33.214 2.422,-33.39 0,0 -0.34,-0.994 0.738,-1.192 1.082,-0.197 1.25,0.987 1.25,0.987 0.016,0.158 1.352,13.685 -1.011,27.439 -0.387,2.243 -3.399,6.156 -3.399,6.156"
       inkscape:connector-curvature="0" /><path
       id="path164"
       style="fill:#000000;fill-opacity:1;fill-rule:nonzero;stroke:none"
       d="m 229.379,334.42 c 0.488,-2.891 3.238,-4.84 6.125,-4.348 2.89,0.488 4.838,3.237 4.346,6.125 -0.489,2.889 -3.237,4.84 -6.123,4.348 -2.887,-0.49 -4.84,-3.238 -4.348,-6.125"
       inkscape:connector-curvature="0" /><path
       id="path166"
       style="fill:#68584c;fill-opacity:1;fill-rule:nonzero;stroke:none"
       d="m 231.352,334.754 c -0.309,1.801 0.91,3.514 2.71,3.82 1.801,0.307 3.512,-0.91 3.821,-2.711 0.304,-1.799 -0.91,-3.513 -2.711,-3.82 -1.801,-0.307 -3.516,0.912 -3.82,2.711"
       inkscape:connector-curvature="0" /><path
       id="path168"
       style="fill:#000000;fill-opacity:1;fill-rule:nonzero;stroke:none"
       d="m 246.65,337.354 c 0.493,-2.891 3.239,-4.84 6.129,-4.348 2.887,0.488 4.836,3.236 4.348,6.125 -0.492,2.888 -3.238,4.84 -6.129,4.348 -2.887,-0.491 -4.84,-3.239 -4.348,-6.125"
       inkscape:connector-curvature="0" /><path
       id="path170"
       style="fill:#68584c;fill-opacity:1;fill-rule:nonzero;stroke:none"
       d="m 248.623,337.687 c -0.305,1.801 0.91,3.514 2.711,3.821 1.797,0.304 3.516,-0.91 3.82,-2.711 0.305,-1.799 -0.914,-3.516 -2.711,-3.82 -1.804,-0.307 -3.515,0.912 -3.82,2.71"
       inkscape:connector-curvature="0" /><path
       id="path172"
       style="fill:#000000;fill-opacity:1;fill-rule:nonzero;stroke:none"
       d="m 253.06,352.742 c -5.859,1.209 -15.712,1.551 -27.408,-4.803 -2.765,-1.664 -3.488,-4.46 -3.488,-4.46 19.834,13.367 35.592,5.711 35.752,5.632 0,0 -1.039,2.981 -4.856,3.631"
       inkscape:connector-curvature="0" /><path
       id="path174"
       style="fill:#000000;fill-opacity:1;fill-rule:nonzero;stroke:none"
       d="m 182.069,388.756 c 0,0 -15.455,-16.574 -3.543,-25.457 11.911,-8.881 31.361,5.074 27.161,20.845 -4.199,15.774 -12.871,14.554 -23.618,4.612"
       inkscape:connector-curvature="0" /><path
       sodipodi:nodetypes="ccs"
       id="path176"
       style="fill:#68584c;fill-opacity:1;fill-rule:nonzero;stroke:none"
       d="m 199.51318,392.72348 c -4.54121,3.83015 -10.34507,-0.14599 -16.5738,-6.03231 l 19.27156,2.2141"
       inkscape:connector-curvature="0" /><path
       sodipodi:nodetypes="ccscccc"
       id="path178"
       style="fill:#cceffc;fill-opacity:1;fill-rule:nonzero;stroke:none"
       d="m 182.04485,385.13017 c -1.695,-1.985 -5.71785,-7.14017 -5.15885,-13.29617 0.019,-0.223 0.047,-0.445 0.084,-0.662 0.359,-2.107 1.494,-3.854 3.457,-5.315 5.269,-3.933 11.698,-2.251 15.96,0.633 10.72512,8.5993 7.57615,15.82048 6.06836,20.92824 l -20.36141,-2.23898"
       inkscape:connector-curvature="0" /><path
       id="path180"
       style="fill:#000000;fill-opacity:1;fill-rule:nonzero;stroke:none"
       d="m 202.01138,382.41962 c 0.41002,-2.40777 -1.20825,-4.6956 -3.61166,-5.10344 -2.40996,-0.41001 -4.69342,1.21698 -5.10344,3.62475 -0.40783,2.4056 1.21043,4.68906 3.62039,5.09908 2.41214,0.40783 4.68687,-1.21043 5.09471,-3.62039"
       inkscape:connector-curvature="0" /><path
       d="m 200.65724,382.38495 c 0.10279,-0.6036 -0.30289,-1.17715 -0.90541,-1.27939 -0.60414,-0.10277 -1.17659,0.30509 -1.27937,0.90869 -0.10224,0.60306 0.30344,1.1755 0.90759,1.27829 0.6047,0.10224 1.17495,-0.30345 1.27719,-0.90759"
       style="fill:#f9f9f9;fill-opacity:1;fill-rule:nonzero;stroke:none"
       id="path3148"
       inkscape:connector-curvature="0" /><path
       id="path3150"
       style="fill:#f9f9f9;fill-opacity:1;fill-rule:nonzero;stroke:none"
       d="m 217.14176,387.59711 c 0.0601,-0.35312 -0.1772,-0.68865 -0.52968,-0.74847 -0.35343,-0.0601 -0.68833,0.17849 -0.74845,0.5316 -0.0598,0.3528 0.17751,0.68769 0.53095,0.74782 0.35376,0.0598 0.68737,-0.17752 0.74718,-0.53095"
       inkscape:connector-curvature="0" /></g></g>









</g><g
     inkscape:groupmode="layer"
     id="layer5"
     inkscape:label="right_arm"
     style="display:none"
     transform="translate(10.81172,-29.184067)"><g
       id="g4654"
       inkscape:transform-center-x="-7.7622314"
       inkscape:transform-center-y="25.712421"
       transform="matrix(1.7926111,0,0,1.7926111,-134.3599,-130.78289)"><path
         inkscape:connector-curvature="0"
         d="m 130.952,209.371 c 0,0 4.094,1.428 6.238,-2.146 2.34,-3.899 0.782,-11.698 -2.339,-18.327 -3.12,-6.629 -12.282,-16.572 -23.006,-10.92 -8.393,4.426 8.968,31.588 19.107,31.393"
         style="fill:#000000;fill-opacity:1;fill-rule:nonzero;stroke:none;display:inline"
         id="path82"
         transform="matrix(0.4287877,0,0,-0.4287877,68.534054,271.35362)" /><path
         inkscape:connector-curvature="0"
         d="m 76.144,271.18 0,0 c -8.639,-3.104 -62.137,-37.545 -63.307,-54.53 -1.209,-17.533 9.002,-29.677 26.648,-31.695 16.576,-1.895 69.838,-10.258 70.373,-10.342 l 1.471,1.772 c 0,0 3.148,2.715 3.025,3.158 0,0.01 -0.031,0.193 -0.031,0.566 0,1.43 0.451,5.619 4.719,13.276 5.619,10.082 13.527,12.285 13.859,12.375 l 0.059,7.732 c -1.172,0.32 -22.586,6.129 -39.629,9.07 6.4,4.038 13.152,10.088 14.805,18.245 0.64,3.175 0.959,6.193 0.959,9.019 0,7.963 -2.518,14.41 -7.385,18.619 -6.191,5.35 -15.51,6.346 -25.566,2.735"
         style="fill:#000000;fill-opacity:1;fill-rule:nonzero;stroke:none;display:inline"
         id="path84"
         transform="matrix(0.4287877,0,0,-0.4287877,68.534054,271.35362)" /><path
         inkscape:connector-curvature="0"
         d="m 131.487,213.564 c -0.398,-0.05 -1.006,-0.173 -1.636,-0.38 -9.639,-1.004 -20.985,-16.11 -23.61,-26.287 -0.43,-1.672 -0.611,-3.137 -0.611,-4.415 0,-5.095 2.74,-7.623 4.349,-8.041 12.073,-3.134 19.614,10.248 21.948,15.205 3.273,6.957 9.898,12.383 6.49,18.059 -1.902,3.176 -3.115,6.354 -6.93,5.859"
         style="fill:#000000;fill-opacity:1;fill-rule:nonzero;stroke:none;display:inline"
         id="path90"
         transform="matrix(0.4287877,0,0,-0.4287877,68.534054,271.35362)" /><path
         inkscape:connector-curvature="0"
         d="m 79.425,220.228 c 0,0 28.711,6.2 28.711,20.579 0,22.964 -12.957,32.961 -30.639,26.609 -9.559,-3.436 -59.707,-37.078 -60.67,-51.041 -0.963,-13.963 6.26,-25.518 23.113,-27.445 16.852,-1.928 70.539,-10.365 70.539,-10.365 0,0 -1.558,4.875 5.071,16.769 6.629,11.891 16.359,14.301 16.359,14.301 0,0 -37.076,10.111 -52.484,10.593"
         style="fill:#ffffff;fill-opacity:1;fill-rule:nonzero;stroke:none;display:inline"
         id="path86"
         transform="matrix(0.4287877,0,0,-0.4287877,68.534054,271.35362)" /><path
         inkscape:connector-curvature="0"
         d="m 116.681,197.213 -0.325,0.726 c 0,0 -58.134,6.024 -79.869,12.571 -15.011,4.521 -9.539,17.66 -4.715,25.357 -8.39,-7.474 -14.613,-14.662 -14.945,-19.492 -0.963,-13.963 6.26,-25.518 23.113,-27.445 16.852,-1.928 70.539,-10.365 70.539,-10.365 0,0 -1.558,4.875 5.071,16.769 0.367,0.658 0.746,1.277 1.131,1.879"
         style="fill:#d6e3e8;fill-opacity:1;fill-rule:nonzero;stroke:none;display:inline"
         id="path88"
         transform="matrix(0.4287877,0,0,-0.4287877,68.534054,271.35362)" /><path
         inkscape:connector-curvature="0"
         d="m 114.214,197.896 c -2.514,-4.757 -3.42,-8.945 -3.42,-11.785 0,-1.464 0.242,-2.574 0.629,-3.215 l 0.955,-1.586 c 0,0 4.582,-0.746 6.824,-1.111 2.932,-7.51 13.457,-11.451 23.184,-12.639 4.849,-0.593 8.16,0.563 10.207,1.708 5.207,-2.028 13.554,-3.661 17.937,-3.297 3.086,0.254 11.295,0.929 11.805,7.801 0.019,0.249 0.027,0.496 0.027,0.736 0,0.095 -0.023,0.174 -0.023,0.269 1.48,0.803 2.713,2.006 3.555,3.627 0.747,1.436 1.118,3.035 1.118,4.543 0,1.653 -0.442,3.196 -1.322,4.301 -0.949,1.203 -2.449,2.223 -3.832,3 -0.007,1.437 -0.343,2.848 -1.015,4.117 -1.059,2.004 -3.453,4.629 -8.84,5.733 -5.684,1.166 -12.443,4.322 -13.442,4.799 -1.546,0.992 -4.984,2.388 -12.695,3.335 -7.769,0.957 -11.773,1.159 -14.086,0.953 -4.289,1.065 -11.711,-0.199 -17.566,-11.289"
         style="fill:#000000;fill-opacity:1;fill-rule:nonzero;stroke:none;display:inline"
         id="path92"
         transform="matrix(0.4287877,0,0,-0.4287877,68.534054,271.35362)" /><path
         inkscape:connector-curvature="0"
         d="m 122.413,183.728 -7.564,1.233 c 0,0 -0.748,4.158 2.902,11.064 5.881,11.131 12.459,9.756 13.795,9.223 0,0 4.523,0.16 13.832,-0.984 9.308,-1.145 11.23,-2.868 11.23,-2.868 0,0 7.887,-3.841 14.592,-5.216 6.705,-1.377 7.363,-5.44 6.207,-8.205 0,0 3.85,-1.567 5.149,-3.207 1.123,-1.422 0.406,-7.393 -5.018,-7.079 0,0 0.961,-1.607 0.809,-3.621 -0.149,-2.013 -1.809,-3.59 -8.149,-4.109 -4.431,-0.367 -14.226,1.746 -18.088,3.801 0,0 -2.843,-3.012 -9.24,-2.231 -7.762,0.949 -19.775,4.563 -20.457,12.199"
         style="fill:#847162;fill-opacity:1;fill-rule:nonzero;stroke:none;display:inline"
         id="path94"
         transform="matrix(0.4287877,0,0,-0.4287877,68.534054,271.35362)" /><path
         inkscape:connector-curvature="0"
         d="m 177.407,187.975 c 1.156,2.765 0.498,6.828 -6.207,8.205 -5.674,1.164 -12.174,4.084 -14.045,4.959 0.68,-24.325 -8.043,-21.434 -16.906,-20.588 -9.07,0.865 -16.992,9.359 -16.992,9.359 l -7.156,2.385 c -1.694,-4.623 -1.252,-7.334 -1.252,-7.334 l 7.564,-1.233 c 0.682,-7.636 12.695,-11.25 20.457,-12.199 6.397,-0.781 9.24,2.231 9.24,2.231 3.862,-2.055 13.657,-4.168 18.088,-3.801 6.34,0.519 8,2.096 8.149,4.109 0.152,2.014 -0.809,3.621 -0.809,3.621 5.424,-0.314 6.141,5.657 5.018,7.079 -1.299,1.64 -5.149,3.207 -5.149,3.207"
         style="fill:#68584c;fill-opacity:1;fill-rule:nonzero;stroke:none;display:inline"
         id="path96"
         transform="matrix(0.4287877,0,0,-0.4287877,68.534054,271.35362)" /><path
         inkscape:connector-curvature="0"
         d="m 154.852,194.246 c -0.318,-1.17 0.874,-1.268 0.874,-1.268 l 24.863,-6.456 0.523,1.929 -24.894,6.465 c 0,0 -1.037,0.533 -1.366,-0.67"
         style="fill:#000000;fill-opacity:1;fill-rule:nonzero;stroke:none;display:inline"
         id="path98"
         transform="matrix(0.4287877,0,0,-0.4287877,68.534054,271.35362)" /><path
         inkscape:connector-curvature="0"
         d="m 153.323,184.572 c -0.383,-0.765 0.719,-1.347 0.719,-1.347 4.047,-1.278 24.367,-7.645 26.939,-7.502 l -0.109,1.996 c -1.705,-0.094 -16.992,4.498 -26.228,7.414 0,0 -0.938,0.203 -1.321,-0.561"
         style="fill:#000000;fill-opacity:1;fill-rule:nonzero;stroke:none;display:inline"
         id="path100"
         transform="matrix(0.4287877,0,0,-0.4287877,68.534054,271.35362)" /><path
         inkscape:connector-curvature="0"
         d="m 93.331,222.562 c -12.137,2.381 -27.035,-1.025 -27.035,-1.025 l 19.799,-1.902 7.236,2.927"
         style="fill:#000000;fill-opacity:1;fill-rule:nonzero;stroke:none;display:inline"
         id="path102"
         transform="matrix(0.4287877,0,0,-0.4287877,68.534054,271.35362)" /></g></g></svg>